<?xml version="1.0" encoding="utf-8"?>
<!-- Generator: Adobe Illustrator 22.0.1, SVG Export Plug-In . SVG Version: 6.00 Build 0)  -->
<svg version="1.1" id="Layer_1" xmlns="http://www.w3.org/2000/svg" xmlns:xlink="http://www.w3.org/1999/xlink" x="0px" y="0px"
	 viewBox="0 0 500 500" style="enable-background:new 0 0 500 500;" xml:space="preserve">
<style type="text/css">
	.st0{fill:#FFFFFF;}
</style>
<g>
	<path class="st0" d="M249.5,479.5c-61.4,0-119.2-23.9-162.6-67.4c-43.4-43.4-67.4-101.2-67.4-162.6S43.4,130.3,86.9,86.9
		c43.4-43.4,101.2-67.4,162.6-67.4s119.2,23.9,162.6,67.4c43.4,43.4,67.4,101.2,67.4,162.6s-23.9,119.2-67.4,162.6
		S310.9,479.5,249.5,479.5z"/>
	<path d="M249.5,39.5c56.1,0,108.8,21.8,148.5,61.5c39.7,39.7,61.5,92.4,61.5,148.5S437.7,358.3,398,398
		c-39.7,39.7-92.4,61.5-148.5,61.5S140.7,437.7,101,398c-39.7-39.7-61.5-92.4-61.5-148.5S61.3,140.7,101,101
		C140.7,61.3,193.4,39.5,249.5,39.5 M249.5-0.5c-138.1,0-250,111.9-250,250s111.9,250,250,250s250-111.9,250-250
		S387.6-0.5,249.5-0.5L249.5-0.5z"/>
</g>
<g>
	<circle cx="249.5" cy="211.5" r="114.5"/>
</g>
<path d="M97,417c0,0,151-155,306,0C403,417,259,549,97,417z"/>
</svg>
