<svg xmlns="http://www.w3.org/2000/svg" viewBox="0 0 500 500"><defs><style>.cls-1,.cls-2{fill:#fff;}.cls-2{stroke:#000;stroke-miterlimit:10;stroke-width:10px;}</style></defs><title>Box</title><g id="box"><path class="cls-1" d="M149.73,421.69a4.11,4.11,0,0,1-3.29-4v-142L250,255.1l103.56,20.61v142a4.1,4.1,0,0,1-3.29,4L250,441.65Z"/><path d="M250,260.2l98.56,19.62V416.93L250,436.55l-98.56-19.62V279.82L250,260.2m0-10.2L141.44,271.61V417.68a9.08,9.08,0,0,0,7.32,8.91L250,446.75l101.25-20.16a9.08,9.08,0,0,0,7.31-8.91V271.61L250,250Z"/><path class="cls-1" d="M299.33,342.9a4.1,4.1,0,0,1-3.74-2.44l-37.11-83.67,96.85,19.28L389,335.82l-89.37,7.06Z"/><path d="M267,263.57l85.14,16.95,28.72,50.94-80.92,6.39L267,263.57M250,250l41,92.49a9.1,9.1,0,0,0,8.31,5.41l.72,0,90.08-7.12a4.54,4.54,0,0,0,3.6-6.76l-35.17-62.38L250,250Z"/><path class="cls-1" d="M200.67,342.9l-.32,0L111,335.82l33.69-59.75,96.85-19.28-37.11,83.67A4.1,4.1,0,0,1,200.67,342.9Z"/><path d="M233,263.57,200.1,337.85l-80.92-6.39,28.72-50.94L233,263.57M250,250,141.44,271.61,106.27,334a4.54,4.54,0,0,0,3.6,6.76L200,347.87l.72,0a9.1,9.1,0,0,0,8.31-5.41L250,250Z"/><line class="cls-2" x1="250" y1="259.16" x2="250" y2="440.31"/></g></svg>