<svg id="Layer_1" data-name="Layer 1" xmlns="http://www.w3.org/2000/svg" viewBox="0 0 500 500"><defs><style>.cls-1{fill:#fff;stroke:#000;stroke-miterlimit:10;stroke-width:10px;}</style></defs><title>Box</title><path class="cls-1" d="M250,361.58H169.21a4.09,4.09,0,0,1-4.1-4.09v-143a4.1,4.1,0,0,0-5-4l-39.27,8.82a4.09,4.09,0,0,1-4.9-3.12l-11.41-52.56a4.1,4.1,0,0,1,2.49-4.68l91.39-36.22a4.1,4.1,0,0,1,5.45,2.69c14,47.94,46.14,45.66,46.14,45.66s32.14,2.28,46.14-45.66a4.1,4.1,0,0,1,5.45-2.69L393,158.93a4.09,4.09,0,0,1,2.49,4.68l-11.41,52.56a4.09,4.09,0,0,1-4.9,3.12l-39.27-8.82a4.09,4.09,0,0,0-5,4v143a4.09,4.09,0,0,1-4.1,4.09Z"/></svg>