<svg xmlns="http://www.w3.org/2000/svg" viewBox="0 0 500 500"><defs><style>.cls-1{fill:none;stroke:#000;stroke-miterlimit:10;stroke-width:10px;}</style></defs><title>graph</title><g id="Box"><path d="M318.11,76.94V423.06H181.88V76.94H318.11m0-10H181.88a10,10,0,0,0-10,10V423.06a10,10,0,0,0,10,10H318.11a10,10,0,0,0,10-10V76.94a10,10,0,0,0-10-10Z"/><line class="cls-1" x1="179.5" y1="178.5" x2="199.5" y2="178.5"/><line class="cls-1" x1="179.5" y1="391.5" x2="199.5" y2="391.5"/><line class="cls-1" x1="179.5" y1="249.5" x2="199.5" y2="249.5"/><line class="cls-1" x1="179.5" y1="320.5" x2="199.5" y2="320.5"/><line class="cls-1" x1="179.5" y1="107.5" x2="199.5" y2="107.5"/></g></svg>