<svg xmlns="http://www.w3.org/2000/svg" viewBox="0 0 500 500"><defs><style>.cls-1{fill:#fff;stroke:#000;stroke-miterlimit:10;stroke-width:6.31px;}</style></defs><title>Token</title><g id="coin"><path class="cls-1" d="M264.74,63.78C232,82.67,205.6,128.44,205.71,166c0,18.67,6.64,31.81,17.27,38l-27.29-15.85c-10.63-6.18-17.22-19.32-17.27-38-.11-37.58,26.32-83.35,59-102.24,16.46-9.5,31.37-10.38,42.14-4.12l27.29,15.86c-10.77-6.26-25.68-5.38-42.14,4.12"/><path class="cls-1" d="M264.74,63.78c32.7-18.88,59.3-3.72,59.41,33.85s-26.32,83.36-59,102.25S205.81,203.6,205.71,166,232,82.67,264.74,63.78Z"/><path d="M268.24,84.32c1-.58,1.82-.13,1.84,1a118.38,118.38,0,0,0,2.05,19.83c1.61,8.26,4.48,17,9.5,23a23.34,23.34,0,0,1,5.56,15.33,31.6,31.6,0,0,1-1.63,9.83,41.74,41.74,0,0,1-4.32,9.13,39.05,39.05,0,0,1-12.75,12.89c-1,.58-1.84.11-1.84-1.05a4,4,0,0,1,1.83-3.17,29.59,29.59,0,0,0,8-7.19,34.1,34.1,0,0,0,5.72-10.47,25.12,25.12,0,0,0,1.29-7.85,20.4,20.4,0,0,0-5-13.37c-5.38-6.4-8.35-15.58-10-24.14l-.24-1.23a124.48,124.48,0,0,1-1.88-19.31,4,4,0,0,1,1.8-3.18c0,.43,0,1.15,0,2.09Z"/><path d="M268.21,84.33a4.06,4.06,0,0,0-1.8,3.19,124.48,124.48,0,0,0,1.88,19.31c-.07.49-.14,1-.22,1.5A152.24,152.24,0,0,1,258.21,144c-3.54,8.34-4.89,14.57-4.88,19.05a13.69,13.69,0,0,0,1.34,6.33,7,7,0,0,0,3.45,3.26c2.84,1.24,6.67.62,10.34-1.5a4,4,0,0,0-1.81,3.16c0,1.16.82,1.63,1.84,1.05a16.9,16.9,0,0,1-9.93,2.58,8.85,8.85,0,0,1-7.21-4.85,16.86,16.86,0,0,1-1.68-7.91c0-5.48,1.63-12.67,5.45-21.69a144.71,144.71,0,0,0,9.35-33.85,160.33,160.33,0,0,0,1.92-22.12A4.05,4.05,0,0,1,268.21,84.33Z"/><path d="M268.22,83.8s0,.18,0,.53h0Z"/><path d="M268.24,83.79v2.64c0-.94,0-1.66,0-2.11S268.24,83.79,268.24,83.79Z"/></g></svg>